<svg width="33" height="33" viewBox="0 0 33 33" fill="none" xmlns="http://www.w3.org/2000/svg">
<g clip-path="url(#clip0_9_12)">
<path d="M3.3 5.5V4.4C3.0458 4.40015 2.7995 4.48834 2.60297 4.64958C2.40644 4.81081 2.27182 5.03513 2.222 5.2844L3.3 5.5ZM29.7 5.5L30.778 5.2844C30.7282 5.03513 30.5936 4.81081 30.397 4.64958C30.2005 4.48834 29.9542 4.40015 29.7 4.4V5.5ZM31.9 16.5V17.6C32.0627 17.5999 32.2233 17.5637 32.3703 17.4941C32.5173 17.4244 32.6471 17.323 32.7502 17.1972C32.8533 17.0714 32.9272 16.9242 32.9666 16.7664C33.006 16.6085 33.0099 16.4439 32.978 16.2844L31.9 16.5ZM1.1 16.5L0.022 16.2844C-0.00988537 16.4439 -0.00599053 16.6085 0.0334039 16.7664C0.0727984 16.9242 0.146712 17.0714 0.249819 17.1972C0.352926 17.323 0.482659 17.4244 0.629673 17.4941C0.776686 17.5637 0.93732 17.5999 1.1 17.6V16.5ZM7.7 23.1H6.6V24.2H7.7V23.1ZM25.3 23.1V24.2H26.4V23.1H25.3ZM0 33H33V30.8H0V33ZM2.2 16.5V31.9H4.4V16.5H2.2ZM28.6 16.5V31.9H30.8V16.5H28.6ZM3.3 6.6H29.7V4.4H3.3V6.6ZM28.622 5.7156L30.822 16.7156L32.978 16.2844L30.778 5.2844L28.622 5.7156ZM31.9 15.4H1.1V17.6H31.9V15.4ZM2.178 16.7156L4.378 5.7156L2.222 5.2844L0.022 16.2844L2.178 16.7156ZM2.2 2.2H30.8V0H2.2V2.2ZM6.6 16.5V23.1H8.8V16.5H6.6ZM7.7 24.2H25.3V22H7.7V24.2ZM26.4 23.1V16.5H24.2V23.1H26.4Z" fill="white"/>
</g>
<defs>
<clipPath id="clip0_9_12">
<rect width="33" height="33" fill="white"/>
</clipPath>
</defs>
</svg>
