<svg width="24" height="24" viewBox="0 0 24 24" fill="none" xmlns="http://www.w3.org/2000/svg">
<path d="M2.4 4V3.2C2.21513 3.20011 2.036 3.26425 1.89307 3.38151C1.75014 3.49877 1.65224 3.66191 1.616 3.8432L2.4 4ZM21.6 4L22.384 3.8432C22.3478 3.66191 22.2499 3.49877 22.1069 3.38151C21.964 3.26425 21.7849 3.20011 21.6 3.2V4ZM23.2 12V12.8C23.3183 12.7999 23.4351 12.7736 23.5421 12.723C23.649 12.6723 23.7433 12.5986 23.8183 12.507C23.8933 12.4155 23.9471 12.3085 23.9757 12.1937C24.0044 12.0789 24.0072 11.9592 23.984 11.8432L23.2 12ZM0.8 12L0.016 11.8432C-0.00718936 11.9592 -0.00435675 12.0789 0.0242938 12.1937C0.0529443 12.3085 0.106699 12.4155 0.181686 12.507C0.256673 12.5986 0.351025 12.6723 0.457944 12.723C0.564863 12.7736 0.681687 12.7999 0.8 12.8V12ZM5.6 16.8H4.8V17.6H5.6V16.8ZM18.4 16.8V17.6H19.2V16.8H18.4ZM0 24H24V22.4H0V24ZM1.6 12V23.2H3.2V12H1.6ZM20.8 12V23.2H22.4V12H20.8ZM2.4 4.8H21.6V3.2H2.4V4.8ZM20.816 4.1568L22.416 12.1568L23.984 11.8432L22.384 3.8432L20.816 4.1568ZM23.2 11.2H0.8V12.8H23.2V11.2ZM1.584 12.1568L3.184 4.1568L1.616 3.8432L0.016 11.8432L1.584 12.1568ZM1.6 1.6H22.4V0H1.6V1.6ZM4.8 12V16.8H6.4V12H4.8ZM5.6 17.6H18.4V16H5.6V17.6ZM19.2 16.8V12H17.6V16.8H19.2Z" fill="#2E2E2E"/>
</svg>
