<svg width="33" height="33" viewBox="0 0 33 33" fill="none" xmlns="http://www.w3.org/2000/svg">
<g id="fluent:tray-item-add-20-regular">
<path id="Vector" d="M18.1498 4.95C18.1498 4.5124 18.3236 4.09271 18.6331 3.78328C18.9425 3.47384 19.3622 3.3 19.7998 3.3H24.7498C25.1874 3.3 25.6071 3.47384 25.9165 3.78328C26.226 4.09271 26.3998 4.5124 26.3998 4.95V8.25C26.3998 8.68761 26.226 9.10729 25.9165 9.41673C25.6071 9.72616 25.1874 9.9 24.7498 9.9H19.7998C19.3622 9.9 18.9425 9.72616 18.6331 9.41673C18.3236 9.10729 18.1498 8.68761 18.1498 8.25V4.95ZM24.7498 4.95H19.7998V8.25H24.7498V4.95ZM22.2748 11.55C22.4936 11.55 22.7035 11.6369 22.8582 11.7916C23.0129 11.9464 23.0998 12.1562 23.0998 12.375V21.9335L24.9907 20.0409C25.1456 19.886 25.3557 19.799 25.5748 19.799C25.7939 19.799 26.004 19.886 26.1589 20.0409C26.3138 20.1958 26.4008 20.4059 26.4008 20.625C26.4008 20.8441 26.3138 21.0542 26.1589 21.2091L22.8589 24.5091C22.7823 24.5859 22.6912 24.6469 22.591 24.6885C22.4908 24.7301 22.3833 24.7515 22.2748 24.7515C22.1663 24.7515 22.0588 24.7301 21.9586 24.6885C21.8584 24.6469 21.7673 24.5859 21.6907 24.5091L18.3907 21.2091C18.2358 21.0542 18.1488 20.8441 18.1488 20.625C18.1488 20.4059 18.2358 20.1958 18.3907 20.0409C18.5456 19.886 18.7557 19.799 18.9748 19.799C19.1939 19.799 19.404 19.886 19.5589 20.0409L21.4498 21.9335V12.375C21.4498 12.1562 21.5367 11.9464 21.6914 11.7916C21.8462 11.6369 22.056 11.55 22.2748 11.55ZM6.5998 19.8C6.5998 19.3624 6.77364 18.9427 7.08308 18.6333C7.39251 18.3238 7.8122 18.15 8.2498 18.15H13.1998C13.6374 18.15 14.0571 18.3238 14.3665 18.6333C14.676 18.9427 14.8498 19.3624 14.8498 19.8V23.1C14.8498 23.5376 14.676 23.9573 14.3665 24.2667C14.0571 24.5762 13.6374 24.75 13.1998 24.75H8.2498C7.8122 24.75 7.39251 24.5762 7.08308 24.2667C6.77364 23.9573 6.5998 23.5376 6.5998 23.1V19.8ZM13.1998 19.8H8.2498V23.1H13.1998V19.8ZM4.1248 21.45C4.34361 21.45 4.55345 21.5369 4.70817 21.6916C4.86289 21.8464 4.9498 22.0562 4.9498 22.275V24.75C4.9498 25.1876 5.12364 25.6073 5.43308 25.9167C5.74251 26.2262 6.1622 26.4 6.5998 26.4H26.3998C26.8374 26.4 27.2571 26.2262 27.5665 25.9167C27.876 25.6073 28.0498 25.1876 28.0498 24.75V22.275C28.0498 22.0562 28.1367 21.8464 28.2914 21.6916C28.4462 21.5369 28.656 21.45 28.8748 21.45C29.0936 21.45 29.3034 21.5369 29.4582 21.6916C29.6129 21.8464 29.6998 22.0562 29.6998 22.275V24.75C29.6998 25.6252 29.3521 26.4646 28.7333 27.0835C28.1144 27.7023 27.275 28.05 26.3998 28.05H6.5998C5.72459 28.05 4.88522 27.7023 4.26635 27.0835C3.64748 26.4646 3.2998 25.6252 3.2998 24.75V22.275C3.2998 22.0562 3.38672 21.8464 3.54144 21.6916C3.69616 21.5369 3.906 21.45 4.1248 21.45Z" fill="#2E2E2E"/>
</g>
</svg>
