<svg width="33" height="33" viewBox="0 0 33 33" fill="none" xmlns="http://www.w3.org/2000/svg">
<g id="carbon:data-view">
<path id="Vector" d="M22.6875 26.8125C23.8266 26.8125 24.75 25.8891 24.75 24.75C24.75 23.6109 23.8266 22.6875 22.6875 22.6875C21.5484 22.6875 20.625 23.6109 20.625 24.75C20.625 25.8891 21.5484 26.8125 22.6875 26.8125Z" fill="#2E2E2E"/>
<path id="Vector_2" d="M30.7075 24.2127C30.0703 22.5894 28.9708 21.1888 27.5452 20.1844C26.1196 19.18 24.4306 18.6161 22.6875 18.5625C20.9444 18.6161 19.2554 19.18 17.8298 20.1844C16.4042 21.1888 15.3047 22.5894 14.6675 24.2127L14.4375 24.75L14.6675 25.2873C15.3047 26.9106 16.4042 28.3112 17.8298 29.3156C19.2554 30.32 20.9444 30.8839 22.6875 30.9375C24.4306 30.8839 26.1196 30.32 27.5452 29.3156C28.9708 28.3112 30.0703 26.9106 30.7075 25.2873L30.9375 24.75L30.7075 24.2127ZM22.6875 28.875C21.8717 28.875 21.0741 28.6331 20.3958 28.1798C19.7174 27.7266 19.1887 27.0823 18.8765 26.3286C18.5643 25.5748 18.4826 24.7454 18.6418 23.9453C18.8009 23.1451 19.1938 22.4101 19.7707 21.8332C20.3476 21.2563 21.0826 20.8634 21.8828 20.7043C22.6829 20.5451 23.5123 20.6268 24.2661 20.939C25.0198 21.2512 25.6641 21.7799 26.1173 22.4583C26.5706 23.1366 26.8125 23.9342 26.8125 24.75C26.8111 25.8436 26.3761 26.892 25.6028 27.6653C24.8295 28.4386 23.7811 28.8736 22.6875 28.875Z" fill="#2E2E2E"/>
<path id="Vector_3" d="M8.25 9.28125C8.81954 9.28125 9.28125 8.81954 9.28125 8.25C9.28125 7.68046 8.81954 7.21875 8.25 7.21875C7.68046 7.21875 7.21875 7.68046 7.21875 8.25C7.21875 8.81954 7.68046 9.28125 8.25 9.28125Z" fill="#2E2E2E"/>
<path id="Vector_4" d="M8.25 17.5312C8.81954 17.5312 9.28125 17.0695 9.28125 16.5C9.28125 15.9305 8.81954 15.4688 8.25 15.4688C7.68046 15.4688 7.21875 15.9305 7.21875 16.5C7.21875 17.0695 7.68046 17.5312 8.25 17.5312Z" fill="#2E2E2E"/>
<path id="Vector_5" d="M8.25 25.7812C8.81954 25.7812 9.28125 25.3195 9.28125 24.75C9.28125 24.1805 8.81954 23.7188 8.25 23.7188C7.68046 23.7188 7.21875 24.1805 7.21875 24.75C7.21875 25.3195 7.68046 25.7812 8.25 25.7812Z" fill="#2E2E2E"/>
<path id="Vector_6" d="M5.15625 21.6562H12.375V19.5938H5.15625V13.4062H21.6562V16.5H23.7188V5.15625C23.7188 4.60924 23.5015 4.08464 23.1147 3.69784C22.7279 3.31105 22.2033 3.09375 21.6562 3.09375H5.15625C4.60924 3.09375 4.08464 3.31105 3.69784 3.69784C3.31105 4.08464 3.09375 4.60924 3.09375 5.15625V27.8438C3.09375 28.3908 3.31105 28.9154 3.69784 29.3022C4.08464 29.689 4.60924 29.9062 5.15625 29.9062H12.375V27.8438H5.15625V21.6562ZM5.15625 5.15625H21.6562V11.3438H5.15625V5.15625Z" fill="#2E2E2E"/>
</g>
</svg>
