<svg width="33" height="33" viewBox="0 0 33 33" fill="none" xmlns="http://www.w3.org/2000/svg">
<g id="clarity:employee-group-line">
<g id="clarityEmployeeGroupLine0">
<path id="Vector" d="M16.8848 14.9508C15.8538 14.94 14.8491 14.6243 13.9971 14.0436C13.1451 13.463 12.484 12.6432 12.097 11.6875C11.7099 10.7319 11.6143 9.68308 11.822 8.67318C12.0298 7.66328 12.5317 6.73743 13.2646 6.01219C13.9975 5.28695 14.9285 4.79475 15.9406 4.59756C16.9526 4.40037 18.0003 4.50701 18.9519 4.90404C19.9034 5.30107 20.7162 5.97076 21.288 6.82877C21.8597 7.68678 22.1648 8.69477 22.1648 9.72583C22.1552 11.1181 21.594 12.4498 20.6043 13.4292C19.6147 14.4085 18.2772 14.9557 16.8848 14.9508ZM16.8848 6.33416C16.2165 6.345 15.5662 6.55309 15.0158 6.9323C14.4653 7.31151 14.0391 7.84493 13.7908 8.46555C13.5425 9.08617 13.4832 9.76633 13.6202 10.4206C13.7572 11.0748 14.0845 11.674 14.5609 12.1429C15.0374 12.6117 15.6418 12.9293 16.2981 13.0558C16.9545 13.1823 17.6336 13.112 18.2502 12.8537C18.8667 12.5955 19.3932 12.1608 19.7635 11.6043C20.1338 11.0478 20.3314 10.3943 20.3315 9.72583C20.3218 8.81976 19.9539 7.95438 19.308 7.31883C18.6621 6.68328 17.7909 6.32926 16.8848 6.33416Z" fill="#2E2E2E"/>
<path id="Vector_2" d="M16.8844 14.9508C15.8534 14.94 14.8487 14.6243 13.9967 14.0436C13.1447 13.463 12.4836 12.6432 12.0965 11.6875C11.7095 10.7319 11.6138 9.68308 11.8216 8.67318C12.0294 7.66328 12.5313 6.73743 13.2642 6.01219C13.997 5.28695 14.9281 4.79475 15.9401 4.59756C16.9521 4.40037 17.9999 4.50701 18.9514 4.90404C19.903 5.30107 20.7158 5.97076 21.2875 6.82877C21.8593 7.68678 22.1644 8.69477 22.1644 9.72583C22.1547 11.1181 21.5936 12.4498 20.6039 13.4292C19.6142 14.4085 18.2767 14.9557 16.8844 14.9508ZM16.8844 6.33416C16.2161 6.345 15.5658 6.55309 15.0153 6.9323C14.4649 7.31151 14.0387 7.84493 13.7904 8.46555C13.5421 9.08617 13.4827 9.76633 13.6198 10.4206C13.7568 11.0748 14.0841 11.674 14.5605 12.1429C15.037 12.6117 15.6413 12.9293 16.2977 13.0558C16.9541 13.1823 17.6332 13.112 18.2497 12.8537C18.8663 12.5955 19.3928 12.1608 19.7631 11.6043C20.1334 11.0478 20.331 10.3943 20.3311 9.72583C20.3214 8.81976 19.9534 7.95438 19.3076 7.31883C18.6617 6.68328 17.7905 6.32926 16.8844 6.33416ZM20.0836 16.1792C16.0177 15.4717 11.8321 16.1156 8.16691 18.0125C7.90674 18.157 7.69131 18.3702 7.54418 18.6289C7.39706 18.8875 7.32391 19.1817 7.33275 19.4792V22.7425C7.33275 22.9856 7.42932 23.2188 7.60123 23.3907C7.77314 23.5626 8.0063 23.6592 8.24941 23.6592C8.49253 23.6592 8.72569 23.5626 8.89759 23.3907C9.0695 23.2188 9.16608 22.9856 9.16608 22.7425V19.5983C12.5648 17.893 16.4297 17.3519 20.1661 18.0583L20.0836 16.1792Z" fill="#2E2E2E"/>
<path id="Vector_3" d="M30.2493 20.1667H24.1077V18.81C24.1077 18.5669 24.0111 18.3337 23.8392 18.1618C23.6673 17.9899 23.4341 17.8933 23.191 17.8933C22.9479 17.8933 22.7147 17.9899 22.5428 18.1618C22.3709 18.3337 22.2743 18.5669 22.2743 18.81V20.1667H15.5827C15.3396 20.1667 15.1064 20.2632 14.9345 20.4352C14.7626 20.6071 14.666 20.8402 14.666 21.0833V30.25C14.666 30.4931 14.7626 30.7263 14.9345 30.8982C15.1064 31.0701 15.3396 31.1667 15.5827 31.1667H30.2493C30.4925 31.1667 30.7256 31.0701 30.8975 30.8982C31.0694 30.7263 31.166 30.4931 31.166 30.25V21.0833C31.166 20.8402 31.0694 20.6071 30.8975 20.4352C30.7256 20.2632 30.4925 20.1667 30.2493 20.1667ZM29.3327 29.3333H16.4993V22H22.2743V22.3758C22.2743 22.6189 22.3709 22.8521 22.5428 23.024C22.7147 23.1959 22.9479 23.2925 23.191 23.2925C23.4341 23.2925 23.6673 23.1959 23.8392 23.024C24.0111 22.8521 24.1077 22.6189 24.1077 22.3758V22H29.3327V29.3333Z" fill="#2E2E2E"/>
<path id="Vector_4" d="M19.9922 25.135H25.4555V26.4183H19.9922V25.135ZM9.93634 11.22C7.3985 11.2625 4.90466 11.8898 2.64884 13.0533C2.40351 13.1829 2.198 13.3767 2.0543 13.6141C1.91061 13.8514 1.83411 14.1234 1.83301 14.4008V17.2425C1.83301 17.4856 1.92958 17.7188 2.10149 17.8907C2.2734 18.0626 2.50656 18.1592 2.74967 18.1592C2.99279 18.1592 3.22595 18.0626 3.39786 17.8907C3.56976 17.7188 3.66634 17.4856 3.66634 17.2425V14.5842C5.8217 13.5113 8.20802 12.9856 10.6147 13.0533C10.2998 12.4788 10.0712 11.8611 9.93634 11.22ZM30.3505 13.0442C28.3273 11.9829 26.1038 11.3583 23.8238 11.2108C23.6896 11.8508 23.4642 12.4682 23.1547 13.0442C25.3025 13.0956 27.4123 13.6215 29.333 14.5842V17.2425C29.333 17.4856 29.4296 17.7188 29.6015 17.8907C29.7734 18.0626 30.0066 18.1592 30.2497 18.1592C30.4928 18.1592 30.7259 18.0626 30.8979 17.8907C31.0698 17.7188 31.1663 17.4856 31.1663 17.2425V14.4008C31.1669 14.1218 31.0912 13.848 30.9474 13.6089C30.8036 13.3697 30.5972 13.1745 30.3505 13.0442ZM9.77134 9.72583V9.11166C9.05324 9.01556 8.39987 8.64621 7.94724 8.0805C7.49461 7.51479 7.2776 6.7963 7.34138 6.07461C7.40516 5.35292 7.74483 4.68364 8.28966 4.20608C8.83449 3.72852 9.54252 3.47949 10.2663 3.51083C11.0192 3.50947 11.7429 3.80221 12.283 4.32666C12.7596 3.93358 13.283 3.60105 13.8413 3.33666C13.2177 2.61951 12.3913 2.10818 11.4712 1.87006C10.5511 1.63194 9.58043 1.67821 8.68715 2.00277C7.79386 2.32733 7.01989 2.91494 6.46724 3.68816C5.91459 4.46138 5.60921 5.38391 5.59134 6.33416C5.61058 7.49719 6.06269 8.61127 6.85937 9.4588C7.65604 10.3063 8.74006 10.8264 9.89967 10.9175C9.82191 10.5248 9.77897 10.1261 9.77134 9.72583ZM22.7055 1.6775C22.0756 1.67764 21.452 1.80336 20.8712 2.04732C20.2904 2.29128 19.7641 2.64858 19.323 3.09833C19.9427 3.32289 20.5287 3.63131 21.0647 4.015C21.4926 3.71793 21.9932 3.54258 22.5129 3.50763C23.0327 3.47268 23.5522 3.57945 24.0161 3.81656C24.4799 4.05366 24.8708 4.41221 25.1468 4.85397C25.4229 5.29573 25.574 5.80414 25.5838 6.325C25.5781 6.86 25.4209 7.38242 25.1305 7.83179C24.8401 8.28116 24.4284 8.6391 23.943 8.86416C23.9799 9.14683 23.9983 9.4316 23.998 9.71666C23.9956 10.0851 23.9649 10.4529 23.9063 10.8167C24.9049 10.5599 25.7907 9.98027 26.4256 9.16791C27.0606 8.35554 27.4092 7.35605 27.4172 6.325C27.4051 5.08503 26.9027 3.90023 26.0199 3.02943C25.1371 2.15863 23.9455 1.67259 22.7055 1.6775Z" fill="#2E2E2E"/>
</g>
</g>
</svg>
