<svg width="33" height="33" viewBox="0 0 33 33" fill="none" xmlns="http://www.w3.org/2000/svg">
<g clip-path="url(#clip0_9_19)">
<path d="M16.5002 1.83334C13.5994 1.83334 10.7637 2.69352 8.35181 4.30511C5.93988 5.91671 4.06002 8.20733 2.94994 10.8873C1.83985 13.5673 1.5494 16.5163 2.11532 19.3613C2.68124 22.2064 4.0781 24.8197 6.12927 26.8709C8.18044 28.9221 10.7938 30.3189 13.6388 30.8849C16.4839 31.4508 19.4329 31.1603 22.1129 30.0502C24.7928 28.9402 27.0835 27.0603 28.6951 24.6484C30.3067 22.2364 31.1668 19.4008 31.1668 16.5C31.1668 12.6102 29.6216 8.87964 26.8711 6.1291C24.1205 3.37857 20.39 1.83334 16.5002 1.83334ZM16.5002 29.3333C13.962 29.3333 11.4808 28.5807 9.37035 27.1705C7.25992 25.7604 5.61504 23.7561 4.64372 21.4111C3.67239 19.0661 3.41825 16.4858 3.91343 13.9963C4.4086 11.5069 5.63086 9.22024 7.42563 7.42547C9.22041 5.63069 11.5071 4.40844 13.9965 3.91326C16.4859 3.41808 19.0663 3.67222 21.4113 4.64355C23.7563 5.61487 25.7606 7.25975 27.1707 9.37018C28.5808 11.4806 29.3335 13.9618 29.3335 16.5C29.3335 19.9036 27.9814 23.1678 25.5747 25.5745C23.168 27.9813 19.9038 29.3333 16.5002 29.3333Z" fill="#2E2E2E"/>
<path d="M16.7657 8.17667C15.7723 8.16025 14.7876 8.36282 13.8813 8.76998C12.9751 9.17714 12.1697 9.7789 11.5223 10.5325C11.4324 10.6158 11.3601 10.7164 11.3097 10.8282C11.2593 10.94 11.2319 11.0607 11.229 11.1833C11.2289 11.2964 11.2516 11.4084 11.2957 11.5125C11.3398 11.6167 11.4044 11.7109 11.4857 11.7896C11.5669 11.8683 11.6631 11.9298 11.7687 11.9705C11.8742 12.0113 11.9868 12.0304 12.0998 12.0267C12.342 12.0207 12.5736 11.9261 12.7507 11.7608C13.2406 11.1867 13.8491 10.7255 14.5343 10.4091C15.2195 10.0926 15.9651 9.92828 16.7198 9.9275C18.8832 9.9275 20.2307 11.3208 20.2307 13.0533V13.0992C20.2307 15.125 18.6173 16.2525 16.069 16.445C15.9658 16.449 15.8646 16.4747 15.7721 16.5205C15.6795 16.5663 15.5977 16.6311 15.5319 16.7107C15.4662 16.7904 15.4179 16.883 15.3904 16.9825C15.3629 17.082 15.3568 17.1862 15.3723 17.2883C15.3723 17.2883 15.3723 19.415 15.3723 19.8092C15.3951 20.0361 15.5017 20.2463 15.6712 20.3989C15.8407 20.5514 16.061 20.6353 16.289 20.6342H16.3898C16.6167 20.6114 16.827 20.5048 16.9795 20.3353C17.1321 20.1658 17.216 19.9455 17.2148 19.7175V17.8292C19.9648 17.4442 22.1923 15.9958 22.1923 12.9892V12.9433C22.1648 10.1933 20.0198 8.17667 16.7657 8.17667Z" fill="#2E2E2E"/>
<path d="M16.2982 25.1625C16.931 25.1625 17.444 24.6495 17.444 24.0167C17.444 23.3838 16.931 22.8708 16.2982 22.8708C15.6654 22.8708 15.1523 23.3838 15.1523 24.0167C15.1523 24.6495 15.6654 25.1625 16.2982 25.1625Z" fill="#2E2E2E"/>
</g>
<defs>
<clipPath id="clip0_9_19">
<rect width="33" height="33" fill="white"/>
</clipPath>
</defs>
</svg>
