<svg width="33" height="33" viewBox="0 0 33 33" fill="none" xmlns="http://www.w3.org/2000/svg">
<path fill-rule="evenodd" clip-rule="evenodd" d="M16.5 18.5625C17.9587 18.5625 19.3576 17.983 20.3891 16.9516C21.4205 15.9201 22 14.5212 22 13.0625C22 11.6038 21.4205 10.2049 20.3891 9.17341C19.3576 8.14196 17.9587 7.5625 16.5 7.5625C15.0413 7.5625 13.6424 8.14196 12.6109 9.17341C11.5795 10.2049 11 11.6038 11 13.0625C11 14.5212 11.5795 15.9201 12.6109 16.9516C13.6424 17.983 15.0413 18.5625 16.5 18.5625ZM16.5 17.1875C17.0417 17.1875 17.5781 17.0808 18.0786 16.8735C18.579 16.6662 19.0338 16.3624 19.4168 15.9793C19.7999 15.5963 20.1037 15.1415 20.311 14.6411C20.5183 14.1406 20.625 13.6042 20.625 13.0625C20.625 12.5208 20.5183 11.9844 20.311 11.4839C20.1037 10.9835 19.7999 10.5287 19.4168 10.1457C19.0338 9.76264 18.579 9.4588 18.0786 9.2515C17.5781 9.0442 17.0417 8.9375 16.5 8.9375C15.406 8.9375 14.3568 9.3721 13.5832 10.1457C12.8096 10.9193 12.375 11.9685 12.375 13.0625C12.375 14.1565 12.8096 15.2057 13.5832 15.9793C14.3568 16.7529 15.406 17.1875 16.5 17.1875Z" fill="#2E2E2E"/>
<path fill-rule="evenodd" clip-rule="evenodd" d="M30.25 16.5C30.25 24.0941 24.0941 30.25 16.5 30.25C8.90588 30.25 2.75 24.0941 2.75 16.5C2.75 8.90588 8.90588 2.75 16.5 2.75C24.0941 2.75 30.25 8.90588 30.25 16.5ZM23.1206 26.9569C21.1413 28.2133 18.8445 28.8788 16.5 28.875C14.0993 28.8789 11.7499 28.1811 9.7405 26.8675C9.5755 26.6613 9.40844 26.4481 9.23862 26.2281C9.04236 25.9703 8.93653 25.655 8.9375 25.3309C8.9375 24.5905 9.46962 23.9697 10.1812 23.8659C14.8871 23.1784 18.1273 23.2375 22.8394 23.8899C23.1807 23.9394 23.4925 24.1107 23.7173 24.3721C23.9421 24.6336 24.0647 24.9676 24.0625 25.3124C24.0625 25.6424 23.9491 25.9627 23.7442 26.213C23.5331 26.4701 23.3248 26.7183 23.1206 26.9569ZM25.4272 25.0704C25.3172 23.7834 24.3403 22.7095 23.0278 22.528C18.2043 21.8604 14.8328 21.7965 9.9825 22.5053C8.6625 22.6978 7.68969 23.7813 7.57419 25.0717C5.35722 22.7694 4.12063 19.6962 4.125 16.5C4.125 9.66556 9.66556 4.125 16.5 4.125C23.3344 4.125 28.875 9.66556 28.875 16.5C28.8794 19.6956 27.6433 22.7681 25.4272 25.0704Z" fill="#2E2E2E"/>
</svg>
